<?xml version="1.0" encoding="UTF-8" standalone="no"?>
<!DOCTYPE svg PUBLIC "-//W3C//DTD SVG 1.1//EN"
 "http://www.w3.org/Graphics/SVG/1.1/DTD/svg11.dtd">
<!-- Generated by graphviz version 16.0.0 (0)
 -->
<!-- Title: MOSAIQ — infrastructure topology (first delivery) Pages: 1 -->
<svg width="1862pt" height="790pt"
 viewBox="0.00 0.00 1862.00 790.00" xmlns="http://www.w3.org/2000/svg" xmlns:xlink="http://www.w3.org/1999/xlink">
<g id="graph0" class="graph" transform="scale(1 1) rotate(0) translate(28.8 761.55)">
<title>MOSAIQ — infrastructure topology (first delivery)</title>
<polygon fill="white" stroke="none" points="-28.8,28.8 -28.8,-761.55 1833.55,-761.55 1833.55,28.8 -28.8,28.8"/>
<text xml:space="preserve" text-anchor="middle" x="902.38" y="-7.55" font-family="IBM Plex Sans, sans-serif" font-size="16.00" fill="#2d3436">MOSAIQ — infrastructure topology (first delivery)</text>
<g id="clust1" class="cluster">
<title>cluster_Cloudflare edge — ADR&#45;0013</title>
<path fill="#fafaf9" stroke="#d5d5d1" d="M197.05,-456.75C197.05,-456.75 368.3,-456.75 368.3,-456.75 374.3,-456.75 380.3,-462.75 380.3,-468.75 380.3,-468.75 380.3,-698.75 380.3,-698.75 380.3,-704.75 374.3,-710.75 368.3,-710.75 368.3,-710.75 197.05,-710.75 197.05,-710.75 191.05,-710.75 185.05,-704.75 185.05,-698.75 185.05,-698.75 185.05,-468.75 185.05,-468.75 185.05,-462.75 191.05,-456.75 197.05,-456.75"/>
<text xml:space="preserve" text-anchor="middle" x="282.68" y="-693.45" font-family="IBM Plex Sans, sans-serif" font-size="14.00" fill="#2d3436">Cloudflare edge — ADR&#45;0013</text>
</g>
<g id="clust2" class="cluster">
<title>cluster_GCP · iac&#45;dev&#45;01 · northamerica&#45;south1&#45;a</title>
<path fill="#fafaf9" stroke="#d5d5d1" d="M541.05,-34.75C541.05,-34.75 1784.75,-34.75 1784.75,-34.75 1790.75,-34.75 1796.75,-40.75 1796.75,-46.75 1796.75,-46.75 1796.75,-712.75 1796.75,-712.75 1796.75,-718.75 1790.75,-724.75 1784.75,-724.75 1784.75,-724.75 541.05,-724.75 541.05,-724.75 535.05,-724.75 529.05,-718.75 529.05,-712.75 529.05,-712.75 529.05,-46.75 529.05,-46.75 529.05,-40.75 535.05,-34.75 541.05,-34.75"/>
<text xml:space="preserve" text-anchor="middle" x="663.8" y="-707.45" font-family="IBM Plex Sans, sans-serif" font-size="14.00" fill="#2d3436">GCP · iac&#45;dev&#45;01 · northamerica&#45;south1&#45;a</text>
</g>
<g id="clust3" class="cluster">
<title>cluster_VPC ingress — tag mosaiq&#45;server</title>
<path fill="#fafaf9" stroke="#d5d5d1" d="M559.05,-52.75C559.05,-52.75 756.55,-52.75 756.55,-52.75 762.55,-52.75 768.55,-58.75 768.55,-64.75 768.55,-64.75 768.55,-670.75 768.55,-670.75 768.55,-676.75 762.55,-682.75 756.55,-682.75 756.55,-682.75 559.05,-682.75 559.05,-682.75 553.05,-682.75 547.05,-676.75 547.05,-670.75 547.05,-670.75 547.05,-64.75 547.05,-64.75 547.05,-58.75 553.05,-52.75 559.05,-52.75"/>
<text xml:space="preserve" text-anchor="middle" x="657.8" y="-665.45" font-family="IBM Plex Sans, sans-serif" font-size="14.00" fill="#2d3436">VPC ingress — tag mosaiq&#45;server</text>
</g>
<g id="clust4" class="cluster">
<title>cluster_mosaiq&#45;deployment&#45;vm · e2&#45;standard&#45;2 · CentOS 10 Stream</title>
<path fill="#fafaf9" stroke="#d5d5d1" d="M876.8,-202.75C876.8,-202.75 1766.75,-202.75 1766.75,-202.75 1772.75,-202.75 1778.75,-208.75 1778.75,-214.75 1778.75,-214.75 1778.75,-588.75 1778.75,-588.75 1778.75,-594.75 1772.75,-600.75 1766.75,-600.75 1766.75,-600.75 876.8,-600.75 876.8,-600.75 870.8,-600.75 864.8,-594.75 864.8,-588.75 864.8,-588.75 864.8,-214.75 864.8,-214.75 864.8,-208.75 870.8,-202.75 876.8,-202.75"/>
<text xml:space="preserve" text-anchor="middle" x="1055.8" y="-583.45" font-family="IBM Plex Sans, sans-serif" font-size="14.00" fill="#2d3436">mosaiq&#45;deployment&#45;vm · e2&#45;standard&#45;2 · CentOS 10 Stream</text>
</g>
<!-- 783e7ab6d10d401aaac936efc5ee3b6f -->
<g id="node1" class="node">
<title>783e7ab6d10d401aaac936efc5ee3b6f</title>
<image xlink:href="/home/omarc/Projects/udem/retail-segmentation/docs/architecture/.venv/lib/python3.14/site-packages/resources/onprem/client/user.png" width="100.8px" height="100.8px" preserveAspectRatio="xMinYMin meet" x="9.9476e-14" y="-622.15"/>
<text xml:space="preserve" text-anchor="middle" x="50.4" y="-506.2" font-family="IBM Plex Sans, sans-serif" font-size="12.00" fill="#2d3436">Visitor browser</text>
</g>
<!-- 47a697324bc74d47b1b97c639813bb69 -->
<g id="node4" class="node">
<title>47a697324bc74d47b1b97c639813bb69</title>
<image xlink:href="/home/omarc/Projects/udem/retail-segmentation/docs/architecture/.venv/lib/python3.14/site-packages/resources/saas/cdn/cloudflare.png" width="100.8px" height="45.2812px" preserveAspectRatio="xMinYMin meet" x="231.775" y="-594.391"/>
<text xml:space="preserve" text-anchor="middle" x="282.18" y="-505.9" font-family="IBM Plex Sans, sans-serif" font-size="12.00" fill="#2d3436">Managed certificate</text>
<text xml:space="preserve" text-anchor="middle" x="282.18" y="-491.65" font-family="IBM Plex Sans, sans-serif" font-size="12.00" fill="#2d3436">Always Use HTTPS</text>
<text xml:space="preserve" text-anchor="middle" x="282.18" y="-477.4" font-family="IBM Plex Sans, sans-serif" font-size="12.00" fill="#2d3436">CF&#45;Connecting&#45;IP</text>
</g>
<!-- 783e7ab6d10d401aaac936efc5ee3b6f&#45;&gt;47a697324bc74d47b1b97c639813bb69 -->
<g id="edge1" class="edge">
<title>783e7ab6d10d401aaac936efc5ee3b6f&#45;&gt;47a697324bc74d47b1b97c639813bb69</title>
<path fill="none" stroke="#8c8c86" d="M100.69,-571.75C100.69,-571.75 220.47,-571.75 220.47,-571.75"/>
<polygon fill="#8c8c86" stroke="#8c8c86" points="220.47,-575.25 230.47,-571.75 220.47,-568.25 220.47,-575.25"/>
<text xml:space="preserve" text-anchor="middle" x="151.93" y="-574.4" font-family="Sans-Serif" font-size="13.00" fill="#2d3436">HTTPS</text>
</g>
<!-- 945846b3a77e4cf98ccd6d39350c98c1 -->
<g id="node2" class="node">
<title>945846b3a77e4cf98ccd6d39350c98c1</title>
<image xlink:href="/home/omarc/Projects/udem/retail-segmentation/docs/architecture/.venv/lib/python3.14/site-packages/resources/onprem/client/user.png" width="100.8px" height="100.8px" preserveAspectRatio="xMinYMin meet" x="231.775" y="-406.15"/>
<text xml:space="preserve" text-anchor="middle" x="282.18" y="-290.05" font-family="IBM Plex Sans, sans-serif" font-size="12.00" fill="#2d3436">Any other source</text>
<text xml:space="preserve" text-anchor="middle" x="282.18" y="-275.8" font-family="IBM Plex Sans, sans-serif" font-size="12.00" fill="#2d3436">reaching the origin address</text>
</g>
<!-- 128d592931ac4d07891174029becdb58 -->
<g id="node7" class="node">
<title>128d592931ac4d07891174029becdb58</title>
<image xlink:href="/home/omarc/Projects/udem/retail-segmentation/docs/architecture/.venv/lib/python3.14/site-packages/resources/gcp/network/firewall-rules.png" width="100.8px" height="100.8px" preserveAspectRatio="xMinYMin meet" x="606.9" y="-406.15"/>
<text xml:space="preserve" text-anchor="middle" x="657.3" y="-290.05" font-family="IBM Plex Sans, sans-serif" font-size="12.00" fill="#c0342b">DENY other ingress</text>
<text xml:space="preserve" text-anchor="middle" x="657.3" y="-275.8" font-family="IBM Plex Sans, sans-serif" font-size="12.00" fill="#c0342b">priority 1000</text>
</g>
<!-- 945846b3a77e4cf98ccd6d39350c98c1&#45;&gt;128d592931ac4d07891174029becdb58 -->
<g id="edge4" class="edge">
<title>945846b3a77e4cf98ccd6d39350c98c1&#45;&gt;128d592931ac4d07891174029becdb58</title>
<path fill="none" stroke="#c0342b" stroke-dasharray="5,2" d="M332.38,-355.75C332.38,-355.75 595.58,-355.75 595.58,-355.75"/>
<polygon fill="#c0342b" stroke="#c0342b" points="595.58,-359.25 605.58,-355.75 595.58,-352.25 595.58,-359.25"/>
<text xml:space="preserve" text-anchor="middle" x="456.18" y="-358.4" font-family="Sans-Serif" font-size="13.00" fill="#2d3436">no route past this rule</text>
</g>
<!-- bea6cc0ce7364136890927c69f845b33 -->
<g id="node3" class="node">
<title>bea6cc0ce7364136890927c69f845b33</title>
<image xlink:href="/home/omarc/Projects/udem/retail-segmentation/docs/architecture/.venv/lib/python3.14/site-packages/resources/onprem/ci/github-actions.png" width="100.8px" height="100.8px" preserveAspectRatio="xMinYMin meet" x="231.775" y="-204.15"/>
<text xml:space="preserve" text-anchor="middle" x="282.18" y="-88.05" font-family="IBM Plex Sans, sans-serif" font-size="12.00" fill="#2d3436">deploy.yml</text>
<text xml:space="preserve" text-anchor="middle" x="282.18" y="-73.8" font-family="IBM Plex Sans, sans-serif" font-size="12.00" fill="#2d3436">after a merge to main</text>
</g>
<!-- b683456c782149e8b52ee853695205b9 -->
<g id="node6" class="node">
<title>b683456c782149e8b52ee853695205b9</title>
<image xlink:href="/home/omarc/Projects/udem/retail-segmentation/docs/architecture/.venv/lib/python3.14/site-packages/resources/gcp/network/firewall-rules.png" width="100.8px" height="100.8px" preserveAspectRatio="xMinYMin meet" x="606.9" y="-204.15"/>
<text xml:space="preserve" text-anchor="middle" x="657.3" y="-88.05" font-family="IBM Plex Sans, sans-serif" font-size="12.00" fill="#1f7a4c">ALLOW :22</text>
<text xml:space="preserve" text-anchor="middle" x="657.3" y="-73.8" font-family="IBM Plex Sans, sans-serif" font-size="12.00" fill="#1f7a4c">OS Login</text>
</g>
<!-- bea6cc0ce7364136890927c69f845b33&#45;&gt;b683456c782149e8b52ee853695205b9 -->
<g id="edge3" class="edge">
<title>bea6cc0ce7364136890927c69f845b33&#45;&gt;b683456c782149e8b52ee853695205b9</title>
<path fill="none" stroke="#8c8c86" d="M332.38,-153.75C332.38,-153.75 595.58,-153.75 595.58,-153.75"/>
<polygon fill="#8c8c86" stroke="#8c8c86" points="595.58,-157.25 605.58,-153.75 595.58,-150.25 595.58,-157.25"/>
<text xml:space="preserve" text-anchor="middle" x="456.18" y="-156.4" font-family="Sans-Serif" font-size="13.00" fill="#2d3436">SSH</text>
</g>
<!-- af31a22f80504985a2648f6b26e6b7d1 -->
<g id="node5" class="node">
<title>af31a22f80504985a2648f6b26e6b7d1</title>
<image xlink:href="/home/omarc/Projects/udem/retail-segmentation/docs/architecture/.venv/lib/python3.14/site-packages/resources/gcp/network/firewall-rules.png" width="100.8px" height="100.8px" preserveAspectRatio="xMinYMin meet" x="606.9" y="-608.15"/>
<text xml:space="preserve" text-anchor="middle" x="657.3" y="-492.05" font-family="IBM Plex Sans, sans-serif" font-size="12.00" fill="#1f7a4c">ALLOW :443</text>
<text xml:space="preserve" text-anchor="middle" x="657.3" y="-477.8" font-family="IBM Plex Sans, sans-serif" font-size="12.00" fill="#1f7a4c">Cloudflare ranges only</text>
</g>
<!-- 47a697324bc74d47b1b97c639813bb69&#45;&gt;af31a22f80504985a2648f6b26e6b7d1 -->
<g id="edge2" class="edge">
<title>47a697324bc74d47b1b97c639813bb69&#45;&gt;af31a22f80504985a2648f6b26e6b7d1</title>
<path fill="none" stroke="#8c8c86" d="M332.38,-557.75C332.38,-557.75 595.58,-557.75 595.58,-557.75"/>
<polygon fill="#8c8c86" stroke="#8c8c86" points="595.58,-561.25 605.58,-557.75 595.58,-554.25 595.58,-561.25"/>
<text xml:space="preserve" text-anchor="middle" x="456.18" y="-567.4" font-family="Sans-Serif" font-size="13.00" fill="#2d3436">edge IPs only</text>
</g>
<!-- 3faf8ade9d9541b2b87177a3b8eaa38b -->
<g id="node9" class="node">
<title>3faf8ade9d9541b2b87177a3b8eaa38b</title>
<image xlink:href="/home/omarc/Projects/udem/retail-segmentation/docs/architecture/.venv/lib/python3.14/site-packages/resources/onprem/network/nginx.png" width="100.8px" height="100.8px" preserveAspectRatio="xMinYMin meet" x="882.8" y="-526.15"/>
<text xml:space="preserve" text-anchor="middle" x="933.2" y="-410.05" font-family="IBM Plex Sans, sans-serif" font-size="12.00" fill="#2d3436">TLS termination</text>
<text xml:space="preserve" text-anchor="middle" x="933.2" y="-395.8" font-family="IBM Plex Sans, sans-serif" font-size="12.00" fill="#2d3436">HSTS · CSP · 5 MiB cap</text>
</g>
<!-- af31a22f80504985a2648f6b26e6b7d1&#45;&gt;3faf8ade9d9541b2b87177a3b8eaa38b -->
<g id="edge5" class="edge">
<title>af31a22f80504985a2648f6b26e6b7d1&#45;&gt;3faf8ade9d9541b2b87177a3b8eaa38b</title>
<path fill="none" stroke="#d45400" d="M707.58,-516.75C707.58,-516.75 871.75,-516.75 871.75,-516.75"/>
<polygon fill="#d45400" stroke="#d45400" points="871.75,-520.25 881.75,-516.75 871.75,-513.25 871.75,-520.25"/>
</g>
<!-- 5b59ece64f2a4feea953146ac89a1b15 -->
<g id="node8" class="node">
<title>5b59ece64f2a4feea953146ac89a1b15</title>
<image xlink:href="/home/omarc/Projects/udem/retail-segmentation/docs/architecture/.venv/lib/python3.14/site-packages/resources/gcp/compute/compute-engine.png" width="100.8px" height="100.8px" preserveAspectRatio="xMinYMin meet" x="882.8" y="-339.15"/>
<text xml:space="preserve" text-anchor="middle" x="933.2" y="-223.2" font-family="IBM Plex Sans, sans-serif" font-size="12.00" fill="#2d3436">50 GB pd&#45;balanced</text>
</g>
<!-- b683456c782149e8b52ee853695205b9&#45;&gt;5b59ece64f2a4feea953146ac89a1b15 -->
<g id="edge6" class="edge">
<title>b683456c782149e8b52ee853695205b9&#45;&gt;5b59ece64f2a4feea953146ac89a1b15</title>
<path fill="none" stroke="#8c8c86" stroke-dasharray="5,2" d="M707.58,-228.45C707.58,-228.45 871.75,-228.45 871.75,-228.45"/>
<polygon fill="#8c8c86" stroke="#8c8c86" points="871.75,-231.95 881.75,-228.45 871.75,-224.95 871.75,-231.95"/>
<text xml:space="preserve" text-anchor="middle" x="825.68" y="-183.4" font-family="Sans-Serif" font-size="13.00" fill="#2d3436">deploy.sh</text>
</g>
<!-- 999601adba1b41d6bfb70bc92a120b87 -->
<g id="node10" class="node">
<title>999601adba1b41d6bfb70bc92a120b87</title>
<image xlink:href="/home/omarc/Projects/udem/retail-segmentation/docs/architecture/.venv/lib/python3.14/site-packages/resources/onprem/network/gunicorn.png" width="100.8px" height="61.425px" preserveAspectRatio="xMinYMin meet" x="1144.35" y="-506.463"/>
<text xml:space="preserve" text-anchor="middle" x="1194.75" y="-410.05" font-family="IBM Plex Sans, sans-serif" font-size="12.00" fill="#2d3436">2 workers, systemd</text>
<text xml:space="preserve" text-anchor="middle" x="1194.75" y="-395.8" font-family="IBM Plex Sans, sans-serif" font-size="12.00" fill="#2d3436">127.0.0.1:8000</text>
</g>
<!-- 3faf8ade9d9541b2b87177a3b8eaa38b&#45;&gt;999601adba1b41d6bfb70bc92a120b87 -->
<g id="edge7" class="edge">
<title>3faf8ade9d9541b2b87177a3b8eaa38b&#45;&gt;999601adba1b41d6bfb70bc92a120b87</title>
<path fill="none" stroke="#d45400" d="M983.32,-475.75C983.32,-475.75 1132.84,-475.75 1132.84,-475.75"/>
<polygon fill="#d45400" stroke="#d45400" points="1132.84,-479.25 1142.84,-475.75 1132.84,-472.25 1132.84,-479.25"/>
<text xml:space="preserve" text-anchor="middle" x="1063.98" y="-493.4" font-family="Sans-Serif" font-size="13.00" fill="#2d3436">proxy_pass</text>
<text xml:space="preserve" text-anchor="middle" x="1063.98" y="-478.4" font-family="Sans-Serif" font-size="13.00" fill="#2d3436">X&#45;Forwarded&#45;For</text>
</g>
<!-- 70cade750efb40a48d63c14c1afab3b2 -->
<g id="node11" class="node">
<title>70cade750efb40a48d63c14c1afab3b2</title>
<image xlink:href="/home/omarc/Projects/udem/retail-segmentation/docs/architecture/.venv/lib/python3.14/site-packages/resources/programming/framework/flask.png" width="100.8px" height="100.8px" preserveAspectRatio="xMinYMin meet" x="1385.65" y="-364.15"/>
<text xml:space="preserve" text-anchor="middle" x="1436.05" y="-248.2" font-family="IBM Plex Sans, sans-serif" font-size="12.00" fill="#2d3436">server&#45;rendered HTML</text>
</g>
<!-- 999601adba1b41d6bfb70bc92a120b87&#45;&gt;70cade750efb40a48d63c14c1afab3b2 -->
<g id="edge8" class="edge">
<title>999601adba1b41d6bfb70bc92a120b87&#45;&gt;70cade750efb40a48d63c14c1afab3b2</title>
<path fill="none" stroke="#d45400" d="M1194.75,-393.2C1194.75,-379.5 1194.75,-369.65 1194.75,-369.65 1194.75,-369.65 1374.25,-369.65 1374.25,-369.65"/>
<polygon fill="#d45400" stroke="#d45400" points="1374.25,-373.15 1384.25,-369.65 1374.25,-366.15 1374.25,-373.15"/>
</g>
<!-- e8b725e3098247b0b65ae2d454c53403 -->
<g id="node14" class="node">
<title>e8b725e3098247b0b65ae2d454c53403</title>
<image xlink:href="/home/omarc/Projects/udem/retail-segmentation/docs/architecture/.venv/lib/python3.14/site-packages/resources/onprem/logging/rsyslog.png" width="100.8px" height="41.7375px" preserveAspectRatio="xMinYMin meet" x="1385.65" y="-507.619"/>
<text xml:space="preserve" text-anchor="middle" x="1436.05" y="-421.2" font-family="IBM Plex Sans, sans-serif" font-size="12.00" fill="#2d3436">journald</text>
</g>
<!-- 999601adba1b41d6bfb70bc92a120b87&#45;&gt;e8b725e3098247b0b65ae2d454c53403 -->
<g id="edge11" class="edge">
<title>999601adba1b41d6bfb70bc92a120b87&#45;&gt;e8b725e3098247b0b65ae2d454c53403</title>
<path fill="none" stroke="#8c8c86" d="M1245.04,-486.75C1245.04,-486.75 1374.31,-486.75 1374.31,-486.75"/>
<polygon fill="#8c8c86" stroke="#8c8c86" points="1374.31,-490.25 1384.31,-486.75 1374.31,-483.25 1374.31,-490.25"/>
<text xml:space="preserve" text-anchor="middle" x="1315.4" y="-483.4" font-family="Sans-Serif" font-size="13.00" fill="#2d3436">stdout / stderr</text>
</g>
<!-- 0f743239352e4d49a073ffee565aca9e -->
<g id="node12" class="node">
<title>0f743239352e4d49a073ffee565aca9e</title>
<image xlink:href="/home/omarc/Projects/udem/retail-segmentation/docs/architecture/.venv/lib/python3.14/site-packages/resources/onprem/database/postgresql.png" width="100.8px" height="100.8px" preserveAspectRatio="xMinYMin meet" x="1659.95" y="-354.15"/>
<text xml:space="preserve" text-anchor="middle" x="1710.35" y="-238.05" font-family="IBM Plex Sans, sans-serif" font-size="12.00" fill="#2d3436">retail — 19 tables, 4NF</text>
<text xml:space="preserve" text-anchor="middle" x="1710.35" y="-223.8" font-family="IBM Plex Sans, sans-serif" font-size="12.00" fill="#2d3436">127.0.0.1:5432</text>
</g>
<!-- 70cade750efb40a48d63c14c1afab3b2&#45;&gt;0f743239352e4d49a073ffee565aca9e -->
<g id="edge9" class="edge">
<title>70cade750efb40a48d63c14c1afab3b2&#45;&gt;0f743239352e4d49a073ffee565aca9e</title>
<path fill="none" stroke="#d45400" d="M1486.36,-313.75C1486.36,-313.75 1648.84,-313.75 1648.84,-313.75"/>
<polygon fill="#d45400" stroke="#d45400" points="1648.84,-317.25 1658.84,-313.75 1648.84,-310.25 1648.84,-317.25"/>
<text xml:space="preserve" text-anchor="middle" x="1573.2" y="-324.4" font-family="Sans-Serif" font-size="13.00" fill="#2d3436">psycopg</text>
<text xml:space="preserve" text-anchor="middle" x="1573.2" y="-309.4" font-family="Sans-Serif" font-size="13.00" fill="#2d3436">parameterized SQL</text>
</g>
<!-- 59d6ab0d39a045f2ace55c5f5ef141d7 -->
<g id="node13" class="node">
<title>59d6ab0d39a045f2ace55c5f5ef141d7</title>
<image xlink:href="/home/omarc/Projects/udem/retail-segmentation/docs/architecture/.venv/lib/python3.14/site-packages/resources/generic/storage/storage.png" width="100.8px" height="100.8px" preserveAspectRatio="xMinYMin meet" x="1659.95" y="-541.15"/>
<text xml:space="preserve" text-anchor="middle" x="1710.35" y="-425.2" font-family="IBM Plex Sans, sans-serif" font-size="12.00" fill="#2d3436">web/uploads/</text>
</g>
<!-- 70cade750efb40a48d63c14c1afab3b2&#45;&gt;59d6ab0d39a045f2ace55c5f5ef141d7 -->
<g id="edge10" class="edge">
<title>70cade750efb40a48d63c14c1afab3b2&#45;&gt;59d6ab0d39a045f2ace55c5f5ef141d7</title>
<path fill="none" stroke="#8c8c86" d="M1435.75,-381.98C1435.75,-395.52 1435.75,-405.65 1435.75,-405.65 1435.75,-405.65 1710.75,-405.65 1710.75,-405.65 1710.75,-405.65 1710.75,-410.95 1710.75,-410.95"/>
<polygon fill="#8c8c86" stroke="#8c8c86" points="1707.25,-410.95 1710.75,-420.95 1714.25,-410.95 1707.25,-410.95"/>
<text xml:space="preserve" text-anchor="middle" x="1573.2" y="-438.4" font-family="Sans-Serif" font-size="13.00" fill="#2d3436">uploads</text>
</g>
</g>
</svg>
